<svg width="31" height="30" viewBox="0 0 31 30" fill="none" xmlns="http://www.w3.org/2000/svg">
<path d="M26.1435 3.35778H23.1845V1.87829C23.1845 1.48591 23.0286 1.10959 22.7512 0.832135C22.4737 0.554678 22.0974 0.398804 21.705 0.398804C21.3126 0.398804 20.9363 0.554678 20.6589 0.832135C20.3814 1.10959 20.2255 1.48591 20.2255 1.87829V3.35778H11.3486V1.87829C11.3486 1.48591 11.1927 1.10959 10.9153 0.832135C10.6378 0.554678 10.2615 0.398804 9.86911 0.398804C9.47673 0.398804 9.10041 0.554678 8.82296 0.832135C8.5455 1.10959 8.38962 1.48591 8.38962 1.87829V3.35778H5.43065C4.2535 3.35778 3.12456 3.8254 2.29218 4.65777C1.45981 5.49015 0.992188 6.61909 0.992188 7.79624V25.5501C0.992188 26.7272 1.45981 27.8562 2.29218 28.6886C3.12456 29.5209 4.2535 29.9885 5.43065 29.9885H26.1435C27.3206 29.9885 28.4496 29.5209 29.2819 28.6886C30.1143 27.8562 30.5819 26.7272 30.5819 25.5501V7.79624C30.5819 6.61909 30.1143 5.49015 29.2819 4.65777C28.4496 3.8254 27.3206 3.35778 26.1435 3.35778ZM27.623 25.5501C27.623 25.9425 27.4671 26.3188 27.1896 26.5962C26.9122 26.8737 26.5359 27.0296 26.1435 27.0296H5.43065C5.03826 27.0296 4.66195 26.8737 4.38449 26.5962C4.10704 26.3188 3.95116 25.9425 3.95116 25.5501V15.1937H27.623V25.5501ZM27.623 12.2347H3.95116V7.79624C3.95116 7.40386 4.10704 7.02754 4.38449 6.75008C4.66195 6.47263 5.03826 6.31675 5.43065 6.31675H8.38962V7.79624C8.38962 8.18862 8.5455 8.56494 8.82296 8.84239C9.10041 9.11985 9.47673 9.27573 9.86911 9.27573C10.2615 9.27573 10.6378 9.11985 10.9153 8.84239C11.1927 8.56494 11.3486 8.18862 11.3486 7.79624V6.31675H20.2255V7.79624C20.2255 8.18862 20.3814 8.56494 20.6589 8.84239C20.9363 9.11985 21.3126 9.27573 21.705 9.27573C22.0974 9.27573 22.4737 9.11985 22.7512 8.84239C23.0286 8.56494 23.1845 8.18862 23.1845 7.79624V6.31675H26.1435C26.5359 6.31675 26.9122 6.47263 27.1896 6.75008C27.4671 7.02754 27.623 7.40386 27.623 7.79624V12.2347Z" fill="#FFCE31"/>
</svg>
