<svg width="31" height="30" viewBox="0 0 31 30" fill="none" xmlns="http://www.w3.org/2000/svg">
<path d="M26.1432 3.35802H23.1843V1.87854C23.1843 1.48615 23.0284 1.10984 22.7509 0.83238C22.4735 0.554922 22.0971 0.399048 21.7048 0.399048C21.3124 0.399048 20.9361 0.554922 20.6586 0.83238C20.3812 1.10984 20.2253 1.48615 20.2253 1.87854V3.35802H11.3484V1.87854C11.3484 1.48615 11.1925 1.10984 10.915 0.83238C10.6376 0.554922 10.2613 0.399048 9.86887 0.399048C9.47648 0.399048 9.10017 0.554922 8.82271 0.83238C8.54525 1.10984 8.38938 1.48615 8.38938 1.87854V3.35802H5.43041C4.25325 3.35802 3.12431 3.82564 2.29194 4.65802C1.45957 5.49039 0.991943 6.61933 0.991943 7.79648V25.5503C0.991943 26.7275 1.45957 27.8564 2.29194 28.6888C3.12431 29.5212 4.25325 29.9888 5.43041 29.9888H26.1432C27.3204 29.9888 28.4493 29.5212 29.2817 28.6888C30.1141 27.8564 30.5817 26.7275 30.5817 25.5503V7.79648C30.5817 6.61933 30.1141 5.49039 29.2817 4.65802C28.4493 3.82564 27.3204 3.35802 26.1432 3.35802ZM27.6227 25.5503C27.6227 25.9427 27.4668 26.319 27.1894 26.5965C26.9119 26.8739 26.5356 27.0298 26.1432 27.0298H5.43041C5.03802 27.0298 4.66171 26.8739 4.38425 26.5965C4.10679 26.319 3.95092 25.9427 3.95092 25.5503V15.1939H27.6227V25.5503ZM27.6227 12.2349H3.95092V7.79648C3.95092 7.4041 4.10679 7.02779 4.38425 6.75033C4.66171 6.47287 5.03802 6.317 5.43041 6.317H8.38938V7.79648C8.38938 8.18887 8.54525 8.56518 8.82271 8.84264C9.10017 9.1201 9.47648 9.27597 9.86887 9.27597C10.2613 9.27597 10.6376 9.1201 10.915 8.84264C11.1925 8.56518 11.3484 8.18887 11.3484 7.79648V6.317H20.2253V7.79648C20.2253 8.18887 20.3812 8.56518 20.6586 8.84264C20.9361 9.1201 21.3124 9.27597 21.7048 9.27597C22.0971 9.27597 22.4735 9.1201 22.7509 8.84264C23.0284 8.56518 23.1843 8.18887 23.1843 7.79648V6.317H26.1432C26.5356 6.317 26.9119 6.47287 27.1894 6.75033C27.4668 7.02779 27.6227 7.4041 27.6227 7.79648V12.2349Z" fill="#CB5E99"/>
</svg>
